HIERARCHY
ROOT Hips
{
  OFFSET 48.9885 94.0984 -10.8104
  CHANNELS 6 Xposition Yposition Zposition Zrotation Xrotation Yrotation
  JOINT spine
  {
    OFFSET 0 7.80059 0.448573
    CHANNELS 3 Zrotation Xrotation Yrotation
    JOINT spine1
    {
      OFFSET 0 10.1364 0
      CHANNELS 3 Zrotation Xrotation Yrotation
      JOINT spine2
      {
        OFFSET 0 9.71251 0
        CHANNELS 3 Zrotation Xrotation Yrotation
        JOINT Neck
        {
          OFFSET 0 24.9361 1.18887
          CHANNELS 3 Zrotation Xrotation Yrotation
          JOINT Head
          {
            OFFSET 0 7.53384 0
            CHANNELS 3 Zrotation Xrotation Yrotation
            End Site
            {
              OFFSET 0 18.2361 -6.01402
            }
          }
        }
        JOINT RightShoulder
        {
          OFFSET -4.08965 10.4888 -0.569457
          CHANNELS 3 Zrotation Xrotation Yrotation
          JOINT RightArm
          {
            OFFSET 0 13.757 0
            CHANNELS 3 Zrotation Xrotation Yrotation
            JOINT RightArmRoll
            {
              OFFSET 0 6.94478 0
              CHANNELS 3 Zrotation Xrotation Yrotation
              JOINT RightForeArm
              {
                OFFSET 0 20.2277 0
                CHANNELS 3 Zrotation Xrotation Yrotation
                JOINT RightForeArmRoll
                {
                  OFFSET 0 7.79312 0
                  CHANNELS 3 Zrotation Xrotation Yrotation
                  JOINT RightHand
                  {
                    OFFSET 0 15.6391 0
                    CHANNELS 3 Zrotation Xrotation Yrotation
                    End Site
                    {
                      OFFSET 0 0 0
                    }
                  }
                }
              }
            }
          }
        }
        JOINT LeftShoulder
        {
          OFFSET 4.08965 10.4888 -0.569457
          CHANNELS 3 Zrotation Xrotation Yrotation
          JOINT LeftArm
          {
            OFFSET 0 13.757 0
            CHANNELS 3 Zrotation Xrotation Yrotation
            JOINT LeftArmRoll
            {
              OFFSET 0 6.94478 0
              CHANNELS 3 Zrotation Xrotation Yrotation
              JOINT LeftForeArm
              {
                OFFSET 0 20.2277 0
                CHANNELS 3 Zrotation Xrotation Yrotation
                JOINT LeftForeArmRoll
                {
                  OFFSET 0 7.79312 0
                  CHANNELS 3 Zrotation Xrotation Yrotation
                  JOINT LeftHand
                  {
                    OFFSET 0 15.6391 0
                    CHANNELS 3 Zrotation Xrotation Yrotation
                    End Site
                    {
                      OFFSET 0 0 0
                    }
                  }
                }
              }
            }
          }
        }
      }
    }
  }
  JOINT RightUpLeg
  {
    OFFSET -6.91416 -1.26788 -1.06358
    CHANNELS 3 Zrotation Xrotation Yrotation
    JOINT RightUpLegRoll
    {
      OFFSET 0 18.3378 0
      CHANNELS 3 Zrotation Xrotation Yrotation
      JOINT RightLeg
      {
        OFFSET 0 -22.7085 0
        CHANNELS 3 Zrotation Xrotation Yrotation
        JOINT RightLegRoll
        {
          OFFSET 0 22.7828 0
          CHANNELS 3 Zrotation Xrotation Yrotation
          JOINT RightFoot
          {
            OFFSET 0 18.9629 0
            CHANNELS 3 Zrotation Xrotation Yrotation
            JOINT RightToeBase
            {
              OFFSET 0 15.852 0
              CHANNELS 3 Zrotation Xrotation Yrotation
              End Site
              {
                OFFSET 0.00671906 7.67701 -0.884893
              }
            }
          }
        }
      }
    }
  }
  JOINT LeftUpLeg
  {
    OFFSET 6.91416 -1.26788 -1.06358
    CHANNELS 3 Zrotation Xrotation Yrotation
    JOINT LeftUpLegRoll
    {
      OFFSET 0 18.3379 0
      CHANNELS 3 Zrotation Xrotation Yrotation
      JOINT LeftLeg
      {
        OFFSET 0 22.7084 0
        CHANNELS 3 Zrotation Xrotation Yrotation
        JOINT LeftLegRoll
        {
          OFFSET 0 22.9934 0
          CHANNELS 3 Zrotation Xrotation Yrotation
          JOINT LeftFoot
          {
            OFFSET 0 18.7522 0
            CHANNELS 3 Zrotation Xrotation Yrotation
            JOINT LeftToeBase
            {
              OFFSET 0 15.852 0
              CHANNELS 3 Zrotation Xrotation Yrotation
              End Site
              {
                OFFSET -0.030112 7.67701 -0.884893
              }
            }
          }
        }
      }
    }
  }
}
MOTION
Frames: 12
Frame Time: 0.00208333
47.9614 103.219 2.38506 3.2566 -0.858789 4.69043 -0.344383 -1.17179 -0.0117082 -0.688935 1.65907 0.0142776 -0.689674 3.30407 0.02583 -16.9129 1.80588 -3.48904 17.7503 -2.12636 -4.30599 42.4368 -12.8437 -8.5835 40.4023 26.3855 61.052 -6.36111e-015 7.95139e-015 6.36111e-015 -0.189784 54.4627 0.349605 -5.97451e-006 2.11505e-006 -3 8.0289 -4.95155 0.697742 -47.8776 -14.4896 9.66523 -56.7024 13.7848 -42.1449 -1.19479e-005 -2.34949e-006 4.38427e-006 5.18015 54.652 -3.2952 -2.45817e-005 -6.34905e-007 3.00001 -8.02984 -4.95142 -0.69766 165.766 9.91625 4.35534 180 7.01496e-015 178.721 -176.604 23.0119 178.466 -4.12324e-006 2.73712e-007 -0.101194 -17.0366 64.9458 17.279 8.13649 25.2327 -3.48774 -169.686 11.8493 -1.65433 4.54188e-006 -4.6773e-006 -1.07613 -4.30062 -26.2974 -0.512304 2.67413e-006 -6.3935e-006 -0.36524 19.2434 68.7156 -20.136 -8.13649 25.2327 3.48773 
47.9795 103.323 2.32229 3.20094 -0.835669 4.64159 -0.333713 -1.16917 -0.0136231 -0.667624 1.66435 0.00929965 -0.668287 3.30935 0.0204921 -16.9058 1.92603 -3.46674 17.7688 -2.32585 -4.26505 42.8309 -12.7233 -8.46603 40.9721 26.129 60.486 -4.77083e-015 4.77083e-015 6.36111e-015 -0.148327 54.3577 0.293012 -5.97451e-006 2.11505e-006 -3 8.0289 -4.95155 0.697742 -48.1441 -14.3826 9.56728 -57.1401 13.4113 -42.0318 -1.19479e-005 -2.34949e-006 4.38427e-006 5.17704 54.3957 -3.26429 -2.45817e-005 -6.34905e-007 3.00001 -8.02984 -4.95142 -0.69766 166.035 10.2143 4.30222 180 7.01497e-015 178.724 -176.696 23.3405 178.464 -4.12324e-006 2.73712e-007 -0.0841967 -17.0318 64.9775 17.3012 8.13649 25.2327 -3.48774 -169.785 12.0588 -1.70028 4.54188e-006 -4.6773e-006 -1.07311 -4.40806 -26.6564 -0.546363 2.67413e-006 -6.3935e-006 -0.367841 19.2466 68.7198 -20.1385 -8.13649 25.2327 3.48773 
47.9211 103.465 2.32374 3.14419 -0.814382 4.59153 -0.322861 -1.1657 -0.0152538 -0.645945 1.67129 0.00487308 -0.646538 3.3163 0.0156998 -16.8943 2.04063 -3.44563 17.7819 -2.51914 -4.22544 43.2275 -12.604 -8.35094 41.5365 25.8791 59.9327 -1.59028e-015 -3.18055e-015 6.36111e-015 -0.109745 54.2479 0.238914 -5.97451e-006 2.11505e-006 -3 8.0289 -4.95155 0.697742 -48.4039 -14.2784 9.47277 -57.5863 13.0481 -41.9283 -1.19479e-005 -2.34949e-006 4.38427e-006 5.18114 54.1445 -3.24051 -2.45817e-005 -6.34905e-007 3.00001 -8.02984 -4.95142 -0.69766 166.308 10.5094 4.24741 180 7.01498e-015 178.727 -176.789 23.6645 178.463 -4.12324e-006 2.73712e-007 -0.0674274 -17.0268 65.0083 17.3227 8.13649 25.2327 -3.48774 -169.881 12.2659 -1.74855 4.54188e-006 -4.6773e-006 -1.07013 -4.51808 -27.0165 -0.581359 2.67413e-006 -6.3935e-006 -0.370414 19.2512 68.725 -20.1421 -8.13649 25.2327 3.48773 
47.9449 103.579 2.32712 3.0869 -0.795812 4.54054 -0.312037 -1.16111 -0.0165746 -0.624315 1.68049 0.00107267 -0.624846 3.3255 0.0115349 -16.8767 2.14685 -3.42647 17.7886 -2.70364 -4.18781 43.6279 -12.4862 -8.23852 42.0955 25.6348 59.3932 4.77083e-015 -1.90833e-014 1.27222e-014 -0.0737587 54.135 0.187063 -5.97451e-006 2.11505e-006 -3 8.0289 -4.95155 0.697742 -48.6573 -14.1772 9.38173 -58.0396 12.6955 -41.8341 -1.19479e-005 -2.34949e-006 4.38427e-006 5.19255 53.8986 -3.22373 -2.45817e-005 -6.34905e-007 3.00001 -8.02984 -4.95142 -0.69766 166.581 10.798 4.19093 180 7.01498e-015 178.73 -176.883 23.9806 178.463 -4.12324e-006 2.73712e-007 -0.0510077 -17.0216 65.0379 17.3435 8.13649 25.2327 -3.48774 -169.977 12.4679 -1.79785 4.54188e-006 -4.6773e-006 -1.0672 -4.63023 -27.3736 -0.617161 2.67413e-006 -6.3935e-006 -0.372895 19.2572 68.7314 -20.1467 -8.13649 25.2327 3.48773 
47.9034 103.689 2.31584 3.02966 -0.780849 4.48889 -0.301448 -1.15512 -0.0175602 -0.603153 1.6925 -0.00202679 -0.603631 3.33751 0.00807922 -16.8511 2.24186 -3.41 17.7876 -2.87677 -4.15284 44.0332 -12.3705 -8.12908 42.6489 25.395 58.8688 4.41391e-030 -7.95139e-015 3.18055e-014 -0.0400814 54.0204 0.137205 -5.97451e-006 2.11505e-006 -3 8.0289 -4.95155 0.697742 -48.9049 -14.0792 9.29416 -58.4989 12.354 -41.7487 -1.19479e-005 -2.34949e-006 4.38427e-006 5.21139 53.6578 -3.21384 -2.45817e-005 -6.34905e-007 3.00001 -8.02984 -4.95142 -0.69766 166.856 11.0769 4.13275 180 7.01499e-015 178.732 -176.977 24.2855 178.463 -4.12324e-006 2.73712e-007 -0.0350589 -17.0164 65.0662 17.3635 8.13649 25.2327 -3.48774 -170.072 12.6621 -1.84688 4.54188e-006 -4.6773e-006 -1.06433 -4.74407 -27.7238 -0.653628 2.67413e-006 -6.3935e-006 -0.375222 19.2647 68.7388 -20.1524 -8.13649 25.2327 3.48773 
47.9204 103.814 2.31228 2.97301 -0.77038 4.43689 -0.291305 -1.14743 -0.0181851 -0.582876 1.70788 -0.00435052 -0.583311 3.35289 0.00541458 -16.8159 2.3228 -3.39698 17.7776 -3.03595 -4.12119 44.4446 -12.2573 -8.02289 43.1966 25.1586 58.361 -1.59028e-015 -3.18055e-015 -0 -0.00841862 53.9058 0.0890813 -5.97451e-006 2.11505e-006 -3 8.0289 -4.95155 0.697742 -49.1471 -13.9848 9.21005 -58.9627 12.024 -41.6719 -1.19479e-005 -2.34949e-006 4.38427e-006 5.2378 53.422 -3.21073 -2.45817e-005 -6.34905e-007 3.00001 -8.02984 -4.95142 -0.69766 167.129 11.3426 4.07289 180 7.015e-015 178.735 -177.07 24.5762 178.464 -4.12324e-006 2.73712e-007 -0.0197023 -17.0112 65.0933 17.3826 8.13649 25.2327 -3.48774 -170.168 12.8456 -1.89434 4.54188e-006 -4.6773e-006 -1.06154 -4.85915 -28.063 -0.690611 2.67413e-006 -6.3935e-006 -0.377333 19.2737 68.7473 -20.1592 -8.13649 25.2327 3.48773 
47.8767 103.919 2.30104 2.91754 -0.765293 4.38482 -0.281818 -1.13778 -0.0184237 -0.563903 1.7272 -0.00582372 -0.564307 3.37222 0.00362285 -16.7693 2.38684 -3.38814 17.7572 -3.17859 -4.09351 44.8632 -12.147 -7.92026 43.7386 24.9247 57.8713 -1.59028e-015 -9.54166e-015 6.36111e-015 0.0215296 53.7928 0.042427 -5.97451e-006 2.11505e-006 -3 8.0289 -4.95155 0.697742 -49.3843 -13.8942 9.12943 -59.4298 11.7056 -41.6031 -1.19479e-005 -2.34949e-006 4.38427e-006 5.2719 53.1913 -3.2143 -2.45817e-005 -6.34905e-007 3.00001 -8.02984 -4.95142 -0.69766 167.4 11.5918 4.01133 180 7.01501e-015 178.737 -177.162 24.8493 178.466 -4.12324e-006 2.73712e-007 -0.00505908 -17.006 65.1189 17.4008 8.13649 25.2327 -3.48774 -170.265 13.0158 -1.93893 4.54188e-006 -4.6773e-006 -1.05882 -4.97498 -28.3873 -0.727953 2.67413e-006 -6.3935e-006 -0.379164 19.2843 68.757 -20.1672 -8.13649 25.2327 3.48773 
47.878 104.018 2.27164 2.86378 -0.766475 4.33296 -0.273195 -1.12586 -0.0182507 -0.546652 1.75104 -0.0063716 -0.547039 3.39606 0.00278589 -16.7096 2.43112 -3.38425 17.7254 -3.30211 -4.07046 45.2904 -12.0402 -7.82147 44.2746 24.6923 57.4011 9.54166e-015 -7.95139e-015 1.27222e-014 0.0500678 53.683 -0.00302512 -5.97451e-006 2.11505e-006 -3 8.0289 -4.95155 0.697742 -49.617 -13.8077 9.05229 -59.8988 11.3993 -41.542 -1.19479e-005 -2.34949e-006 4.38427e-006 5.31386 52.9657 -3.22444 -2.45817e-005 -6.34905e-007 3.00001 -8.02984 -4.95142 -0.69766 167.667 11.821 3.94807 180 7.01501e-015 178.74 -177.252 25.1015 178.469 -4.12324e-006 2.73712e-007 0.00874933 -17.001 65.1429 17.4179 8.13649 25.2327 -3.48774 -170.364 13.1699 -1.97932 4.54188e-006 -4.6773e-006 -1.05619 -5.09107 -28.6927 -0.765487 2.67413e-006 -6.3935e-006 -0.380655 19.2963 68.7678 -20.1765 -8.13649 25.2327 3.48773 
47.8482 104.131 2.27362 2.81231 -0.774816 4.28162 -0.265647 -1.11141 -0.0176406 -0.531542 1.77995 -0.00591933 -0.531926 3.42497 0.0029856 -16.6349 2.45283 -3.38604 17.6807 -3.40391 -4.05271 45.7272 -11.9373 -7.72682 44.8045 24.4607 56.9522 -1.11319e-014 3.18055e-015 1.59028e-014 0.0775054 53.5778 -0.0475465 -5.97451e-006 2.11505e-006 -3 8.0289 -4.95155 0.697742 -49.8455 -13.7255 8.97863 -60.3685 11.1054 -41.4883 -1.19479e-005 -2.34949e-006 4.38427e-006 5.36382 52.745 -3.24107 -2.45817e-005 -6.34905e-007 3.00001 -8.02984 -4.95142 -0.69766 167.928 12.0269 3.88311 180 7.01502e-015 178.743 -177.34 25.3297 178.473 -4.12324e-006 2.73712e-007 0.0216017 -16.9961 65.1654 17.4339 8.13649 25.2327 -3.48774 -170.467 13.3051 -2.0142 4.54188e-006 -4.6773e-006 -1.05367 -5.20691 -28.9752 -0.803037 2.67413e-006 -6.3935e-006 -0.381741 19.31 68.7797 -20.187 -8.13649 25.2327 3.48773 
47.8506 104.241 2.29368 2.76366 -0.791205 4.23106 -0.259382 -1.09414 -0.0165678 -0.518994 1.8145 -0.00439207 -0.51939 3.45952 0.00430392 -16.5436 2.4491 -3.39427 17.6218 -3.48141 -4.04091 46.1748 -11.8388 -7.63658 45.3282 24.2288 56.5262 6.36111e-015 -1.27222e-014 6.36111e-015 0.104155 53.479 -0.0914118 -5.97451e-006 2.11505e-006 -3 8.0289 -4.95155 0.697742 -50.0703 -13.648 8.90847 -60.8375 10.8241 -41.4415 -1.19479e-005 -2.34949e-006 4.38427e-006 5.42194 52.5292 -3.26411 -2.45817e-005 -6.34905e-007 3.00001 -8.02984 -4.95142 -0.69766 168.184 12.2062 3.81646 180 7.01503e-015 178.745 -177.425 25.5306 178.478 -4.12324e-006 2.73712e-007 0.0333766 -16.9916 65.1862 17.4488 8.13649 25.2327 -3.48774 -170.573 13.4187 -2.04225 4.54188e-006 -4.6773e-006 -1.05125 -5.32197 -29.2309 -0.840415 2.67413e-006 -6.3935e-006 -0.382361 19.3253 68.7929 -20.1988 -8.13649 25.2327 3.48773 
47.8256 104.327 2.2847 2.71621 -0.816362 4.18079 -0.254419 -1.0734 -0.014802 -0.509041 1.85597 -0.00132013 -0.509472 3.50099 0.00721149 -16.4261 2.41586 -3.41028 17.5402 -3.53247 -4.03567 46.6432 -11.7445 -7.55101 45.8379 24.0047 56.1257 -6.36111e-015 1.43125e-014 1.59028e-014 0.129033 53.3831 -0.133832 -5.97451e-006 2.11505e-006 -3 8.0289 -4.95155 0.697742 -50.2855 -13.5772 8.84386 -61.3129 10.5619 -41.4076 -1.19479e-005 -2.34949e-006 4.38427e-006 5.4929 52.3222 -3.29857 -2.45817e-005 -6.34905e-007 3.00001 -8.02984 -4.95142 -0.69766 168.435 12.3613 3.74839 180 7.01503e-015 178.748 -177.51 25.7091 178.485 -4.12324e-006 2.73712e-007 0.0442023 -16.9867 65.2044 17.4618 8.13649 25.2327 -3.48774 -170.682 13.513 -2.06762 4.54188e-006 -4.6773e-006 -1.04895 -5.43861 -29.4693 -0.878579 2.67413e-006 -6.3935e-006 -0.382619 19.3432 68.808 -20.2128 -8.13649 25.2327 3.48773 
47.8415 104.441 2.33519 2.6681 -0.849794 4.1301 -0.25053 -1.04906 -0.0122034 -0.501228 1.90464 0.00355462 -0.501718 3.54967 0.0119591 -16.2772 2.35339 -3.43421 17.431 -3.55848 -4.03664 47.1381 -11.654 -7.46991 46.329 23.7964 55.75 4.23735e-030 -9.54166e-015 2.54444e-014 0.15108 53.2857 -0.173934 -5.97451e-006 2.11505e-006 -3 8.0289 -4.95155 0.697742 -50.4865 -13.5142 8.78628 -61.802 10.3235 -41.3908 -1.19479e-005 -2.34949e-006 4.38427e-006 5.57968 52.1271 -3.34799 -2.45817e-005 -6.34905e-007 3.00001 -8.02984 -4.95142 -0.69766 168.687 12.498 3.67912 180 7.01504e-015 178.751 -177.597 25.8724 178.494 -4.12324e-006 2.73712e-007 0.054313 -16.9809 65.2195 17.4728 8.13649 25.2327 -3.48774 -170.789 13.5931 -2.09488 4.54188e-006 -4.6773e-006 -1.04674 -5.55915 -29.7023 -0.918432 2.67413e-006 -6.3935e-006 -0.382664 19.3645 68.8256 -20.2293 -8.13649 25.2327 3.48773 
